Coordinates
version=1
nRows=22
nColumns=24
inDegrees=yes

Units are S.I. units (second, meters, Newtons, ...)
If the header above contains a line with 'inDegrees', this indicates whether rotational values are in degrees (yes) or radians (no).

endheader
time	pelvis_tilt	pelvis_list	pelvis_rotation	pelvis_tx	pelvis_ty	pelvis_tz	hip_flexion_r	hip_adduction_r	hip_rotation_r	knee_angle_r	ankle_angle_r	subtalar_angle_r	mtp_angle_r	hip_flexion_l	hip_adduction_l	hip_rotation_l	knee_angle_l	ankle_angle_l	subtalar_angle_l	mtp_angle_l	lumbar_extension	lumbar_bending	lumbar_rotation
      0.61700000	     -4.10836751	      0.00000000	      0.00000000	      0.58907753	      0.99948440	      0.00000000	     27.87986710	      0.00000000	      0.00000000	     -2.07164862	      2.75974755	      0.00000000	      0.00000000	    -16.04693912	      0.00000000	      0.00000000	      3.29358310	      7.07327279	      0.00000000	      0.00000000	      0.00000000	      0.00000000	      0.00000000
      0.63300000	     -4.08593388	      0.00000000	      0.00000000	      0.59025208	      0.99797173	      0.00000000	     28.37420860	      0.00000000	      0.00000000	     -4.27205937	      1.58108033	      0.00000000	      0.00000000	    -16.31557566	      0.00000000	      0.00000000	      1.26861458	      7.93079419	      0.00000000	      0.00000000	      0.00000000	      0.00000000	      0.00000000
      0.65000000	     -4.10957071	      0.00000000	      0.00000000	      0.59183039	      0.99686002	      0.00000000	     28.87426874	      0.00000000	      0.00000000	     -6.82728429	      0.07578398	      0.00000000	      0.00000000	    -16.41110551	      0.00000000	      0.00000000	     -0.98495662	      8.55721361	      0.00000000	      0.00000000	      0.00000000	      0.00000000	      0.00000000
      0.66700000	     -4.13421923	      0.00000000	      0.00000000	      0.59382537	      0.99659678	      0.00000000	     29.23279895	      0.00000000	      0.00000000	     -9.36630720	     -1.46384725	      0.00000000	      0.00000000	    -16.19944889	      0.00000000	      0.00000000	     -3.83769039	      8.93385596	      0.00000000	      0.00000000	      0.00000000	      0.00000000	      0.00000000
      0.68300000	     -4.12030580	      0.00000000	      0.00000000	      0.59536508	      0.99706511	      0.00000000	     29.64602171	      0.00000000	      0.00000000	    -12.23288326	     -2.51285989	      0.00000000	      0.00000000	    -15.45790480	      0.00000000	      0.00000000	     -7.72432603	      9.17572687	      0.00000000	      0.00000000	      0.00000000	      0.00000000	      0.00000000
      0.70000000	     -4.06222368	      0.00000000	      0.00000000	      0.59833854	      0.99835439	      0.00000000	     29.86928913	      0.00000000	      0.00000000	    -15.15944797	     -2.81527337	      0.00000000	      0.00000000	    -14.42314145	      0.00000000	      0.00000000	    -12.32541362	      8.86970559	      0.00000000	      0.00000000	      0.00000000	      0.00000000	      0.00000000
      0.71700000	     -3.98136192	      0.00000000	      0.00000000	      0.60083192	      1.00002020	      0.00000000	     29.69310095	      0.00000000	      0.00000000	    -17.42465215	     -2.79230233	      0.00000000	      0.00000000	    -12.81923687	      0.00000000	      0.00000000	    -17.87910228	      8.05086764	      0.00000000	      0.00000000	      0.00000000	      0.00000000	      0.00000000
      0.73300000	     -4.03429374	      0.00000000	      0.00000000	      0.60246113	      1.00138175	      0.00000000	     29.56643069	      0.00000000	      0.00000000	    -19.49506117	     -2.40360230	      0.00000000	      0.00000000	    -10.20139046	      0.00000000	      0.00000000	    -24.79689259	      6.69077317	      0.00000000	      0.00000000	      0.00000000	      0.00000000	      0.00000000
      0.75000000	     -4.03850383	      0.00000000	      0.00000000	      0.60453090	      1.00315610	      0.00000000	     28.98647641	      0.00000000	      0.00000000	    -20.95060059	     -1.62920654	      0.00000000	      0.00000000	     -7.47895744	      0.00000000	      0.00000000	    -31.54284505	      4.12356680	      0.00000000	      0.00000000	      0.00000000	      0.00000000	      0.00000000
      0.76700000	     -4.15838439	      0.00000000	      0.00000000	      0.60590707	      1.00486027	      0.00000000	     28.39371113	      0.00000000	      0.00000000	    -22.12081909	     -0.54610278	      0.00000000	      0.00000000	     -4.24959932	      0.00000000	      0.00000000	    -38.38703307	      0.73234680	      0.00000000	      0.00000000	      0.00000000	      0.00000000	      0.00000000
      0.78300000	     -4.33793498	      0.00000000	      0.00000000	      0.60590969	      1.00657535	      0.00000000	     27.66320933	      0.00000000	      0.00000000	    -22.74864174	      0.51274466	      0.00000000	      0.00000000	     -0.79675743	      0.00000000	      0.00000000	    -44.78927600	     -2.94331699	      0.00000000	      0.00000000	      0.00000000	      0.00000000	      0.00000000
      0.80000000	     -4.46252046	      0.00000000	      0.00000000	      0.60584896	      1.00839966	      0.00000000	     26.83866988	      0.00000000	      0.00000000	    -23.33842920	      1.78520950	      0.00000000	      0.00000000	      2.57749425	      0.00000000	      0.00000000	    -50.57378195	     -6.07182457	      0.00000000	      0.00000000	      0.00000000	      0.00000000	      0.00000000
      0.81700000	     -4.49658527	      0.00000000	      0.00000000	      0.60553083	      1.01089565	      0.00000000	     25.61369411	      0.00000000	      0.00000000	    -23.28361409	      2.86834082	      0.00000000	      0.00000000	      5.60562651	      0.00000000	      0.00000000	    -55.36645254	     -7.95079181	      0.00000000	      0.00000000	      0.00000000	      0.00000000	      0.00000000
      0.83300000	     -4.55486958	      0.00000000	      0.00000000	      0.60484208	      1.01367278	      0.00000000	     24.35087422	      0.00000000	      0.00000000	    -23.05009137	      3.84241124	      0.00000000	      0.00000000	      8.56241379	      0.00000000	      0.00000000	    -59.47557336	     -8.28094822	      0.00000000	      0.00000000	      0.00000000	      0.00000000	      0.00000000
      0.85000000	     -4.61282793	      0.00000000	      0.00000000	      0.60406841	      1.01677293	      0.00000000	     22.84532726	      0.00000000	      0.00000000	    -22.30860145	      4.61071789	      0.00000000	      0.00000000	     11.39301655	      0.00000000	      0.00000000	    -62.80991031	     -7.44577994	      0.00000000	      0.00000000	      0.00000000	      0.00000000	      0.00000000
      0.86700000	     -4.55130908	      0.00000000	      0.00000000	      0.60329430	      1.02002774	      0.00000000	     21.25053140	      0.00000000	      0.00000000	    -21.63238813	      5.28256516	      0.00000000	      0.00000000	     13.95699805	      0.00000000	      0.00000000	    -65.33861487	     -6.07432227	      0.00000000	      0.00000000	      0.00000000	      0.00000000	      0.00000000
      0.88300000	     -4.63098265	      0.00000000	      0.00000000	      0.60197273	      1.02309140	      0.00000000	     19.62385736	      0.00000000	      0.00000000	    -20.49140993	      5.75647609	      0.00000000	      0.00000000	     16.59765911	      0.00000000	      0.00000000	    -67.09269472	     -4.68118509	      0.00000000	      0.00000000	      0.00000000	      0.00000000	      0.00000000
      0.90000000	     -4.60064701	      0.00000000	      0.00000000	      0.60094348	      1.02602978	      0.00000000	     17.89114303	      0.00000000	      0.00000000	    -19.40778400	      6.21574995	      0.00000000	      0.00000000	     18.96180805	      0.00000000	      0.00000000	    -68.04604352	     -3.51276734	      0.00000000	      0.00000000	      0.00000000	      0.00000000	      0.00000000
      0.91700000	     -4.57758237	      0.00000000	      0.00000000	      0.59949733	      1.02868576	      0.00000000	     16.09266605	      0.00000000	      0.00000000	    -18.07070316	      6.49645046	      0.00000000	      0.00000000	     21.15179649	      0.00000000	      0.00000000	    -68.12164797	     -2.69130493	      0.00000000	      0.00000000	      0.00000000	      0.00000000	      0.00000000
      0.93300000	     -4.57877058	      0.00000000	      0.00000000	      0.59835180	      1.03103898	      0.00000000	     14.27212395	      0.00000000	      0.00000000	    -16.66838921	      6.73983285	      0.00000000	      0.00000000	     23.12698541	      0.00000000	      0.00000000	    -67.35293707	     -2.08183067	      0.00000000	      0.00000000	      0.00000000	      0.00000000	      0.00000000
      0.95000000	     -4.71494348	      0.00000000	      0.00000000	      0.59574774	      1.03216140	      0.00000000	     12.96866755	      0.00000000	      0.00000000	    -15.83255744	      7.18690938	      0.00000000	      0.00000000	     25.20377775	      0.00000000	      0.00000000	    -66.00489095	     -1.58101827	      0.00000000	      0.00000000	      0.00000000	      0.00000000	      0.00000000
      0.96700000	     -4.83254863	      0.00000000	      0.00000000	      0.59350959	      1.03312791	      0.00000000	     11.55430123	      0.00000000	      0.00000000	    -14.81441955	      7.46658048	      0.00000000	      0.00000000	     26.93211066	      0.00000000	      0.00000000	    -63.75471204	     -1.30505999	      0.00000000	      0.00000000	      0.00000000	      0.00000000	      0.00000000
